<svg width="19" height="15" viewBox="0 0 19 15" fill="none" xmlns="http://www.w3.org/2000/svg">
<path d="M0 7.5C0 7.24934 0.105726 7.02836 0.317178 6.83707L7.09047 0.296834C7.19961 0.191293 7.30874 0.115435 7.41788 0.0692612C7.53384 0.0230871 7.6532 0 7.77598 0C8.02836 0 8.23981 0.0824538 8.41034 0.247361C8.58769 0.405673 8.67636 0.60686 8.67636 0.850923C8.67636 0.969657 8.65249 1.08509 8.60474 1.19723C8.56381 1.30277 8.50242 1.39512 8.42057 1.47427L6.1287 3.73021L2.07701 7.31201L1.86214 6.81728L5.1567 6.61939H18.0996C18.3656 6.61939 18.5805 6.70185 18.7442 6.86675C18.9147 7.03166 19 7.24274 19 7.5C19 7.75726 18.9147 7.96834 18.7442 8.13325C18.5805 8.29815 18.3656 8.38061 18.0996 8.38061H5.1567L1.86214 8.18272L2.07701 7.69789L6.1287 11.2698L8.42057 13.5257C8.50242 13.6049 8.56381 13.7005 8.60474 13.8127C8.65249 13.9182 8.67636 14.0303 8.67636 14.1491C8.67636 14.3931 8.58769 14.5943 8.41034 14.7526C8.23981 14.9175 8.02836 15 7.77598 15C7.53043 15 7.30874 14.9077 7.11093 14.723L0.317178 8.16293C0.105726 7.97164 0 7.75066 0 7.5Z" fill="#292D32"/>
</svg>
