<?xml version="1.0" encoding="UTF-8"?>
<svg xmlns="http://www.w3.org/2000/svg" version="1.1" viewBox="0 0 24.5 30.5">
  <defs>
    <style>
      .cls-1 {
        stroke-width: .9px;
      }

      .cls-1, .cls-2 {
        fill: #5B8EB0;
        stroke: #5B8EB0;
      }

      .cls-2 {
        stroke-width: .5px;
      }
    </style>
  </defs>
  <!-- Generator: Adobe Illustrator 28.6.0, SVG Export Plug-In . SVG Version: 1.2.0 Build 709)  -->
  <g>
    <g id="Layer_1">
      <g id="Layer_30">
        <path id="Path_130" class="cls-1" d="M22.5,25H2c-.5,0-.9-.4-.9-.9,0-.1,0-.3,0-.4,1.1-2.3,1.8-4.9,1.8-7.5v-3.3C2.9,7.8,7.1,3.6,12.3,3.6s9.3,4.2,9.3,9.3v3.3c0,2.6.6,5.1,1.8,7.5.2.5,0,1-.4,1.3-.1,0-.3.1-.4.1ZM3.5,23.2h17.6c-.9-2.2-1.3-4.6-1.4-7v-3.3c0-4.1-3.3-7.5-7.5-7.5s-7.5,3.3-7.5,7.5v3.3c0,2.4-.5,4.7-1.4,7Z"/>
        <path id="Path_131" class="cls-2" d="M12.3,30c-2.6,0-4.7-2.1-4.7-4.7s.4-.9.9-.9.9.4.9.9c0,.7.3,1.5.8,2,1.1,1.1,2.8,1.1,4,0,.4-.4,1-.4,1.3,0s.4,1,0,1.3c-.9.9-2.1,1.4-3.3,1.4Z"/>
        <path id="Path_132" class="cls-2" d="M12.3,5.5c-.5,0-.9-.4-.9-.9V1.7c0-.5.4-.9.9-.9s.9.4.9.9v2.8c0,.5-.4.9-.9.9Z"/>
      </g>
    </g>
  </g>
</svg>